<?xml version="1.0" encoding="utf-8"?>
<!-- Generator: Adobe Illustrator 28.0.0, SVG Export Plug-In . SVG Version: 6.00 Build 0)  -->
<svg version="1.1" id="Layer_1" xmlns="http://www.w3.org/2000/svg" xmlns:xlink="http://www.w3.org/1999/xlink" x="0px" y="0px"
	 viewBox="0 0 800 800" style="enable-background:new 0 0 800 800;" xml:space="preserve">
<style type="text/css">
	.st0{fill-rule:evenodd;clip-rule:evenodd;}
</style>
<path id="路径_00000037655974373357019910000002536693140533985935_" class="st0" d="M400,452.1l208.6,208.6
	c14.4,14.4,37.7,14.4,52.1,0c14.4-14.4,14.4-37.7,0-52.2L452.1,400l208.6-208.6c14.4-14.4,14.4-37.7,0-52.1
	c-14.4-14.4-37.7-14.4-52.1,0L400,347.9L191.4,139.3c-14.4-14.4-37.7-14.4-52.1,0c-14.4,14.4-14.4,37.7,0,52.1L347.9,400
	L139.3,608.6c-14.4,14.4-14.4,37.7,0,52.1c14.4,14.4,37.7,14.4,52.1,0L400,452.1z"/>
</svg>
