<?xml version="1.0" encoding="utf-8"?>
<!-- Generator: Adobe Illustrator 28.0.0, SVG Export Plug-In . SVG Version: 6.00 Build 0)  -->
<svg version="1.1" id="Layer_1" xmlns="http://www.w3.org/2000/svg" xmlns:xlink="http://www.w3.org/1999/xlink" x="0px" y="0px"
	 viewBox="0 0 800 800" style="enable-background:new 0 0 800 800;" xml:space="preserve">
<style type="text/css">
	.st0{fill-rule:evenodd;clip-rule:evenodd;}
</style>
<path class="st0" d="M100,133.3c0-18.4,14.9-33.3,33.3-33.3h133.3c18.4,0,33.3,14.9,33.3,33.3s-14.9,33.3-33.3,33.3h-52.9
	l109.8,109.8c13,13,13,34.1,0,47.1c-13,13-34.1,13-47.1,0L166.7,213.8v52.9c0,18.4-14.9,33.3-33.3,33.3S100,285.1,100,266.7V133.3z
	 M533.3,100h133.3c18.4,0,33.3,14.9,33.3,33.3v133.3c0,18.4-14.9,33.3-33.3,33.3s-33.3-14.9-33.3-33.3v-52.9L523.6,323.6
	c-13,13-34.1,13-47.1,0c-13-13-13-34.1,0-47.1l109.8-109.8h-52.9c-18.4,0-33.3-14.9-33.3-33.3S514.9,100,533.3,100z M323.6,476.4
	c13,13,13,34.1,0,47.1L213.8,633.3h52.9c18.4,0,33.3,14.9,33.3,33.3S285.1,700,266.7,700H133.3c-18.4,0-33.3-14.9-33.3-33.3V533.3
	c0-18.4,14.9-33.3,33.3-33.3s33.3,14.9,33.3,33.3v52.9l109.8-109.8C289.4,463.4,310.6,463.4,323.6,476.4z M476.4,476.4
	c13-13,34.1-13,47.1,0l109.8,109.8v-52.9c0-18.4,14.9-33.3,33.3-33.3s33.3,14.9,33.3,33.3v133.3c0,18.4-14.9,33.3-33.3,33.3H533.3
	c-18.4,0-33.3-14.9-33.3-33.3s14.9-33.3,33.3-33.3h52.9L476.4,523.6C463.4,510.6,463.4,489.4,476.4,476.4z"/>
</svg>
